<mxfile host="app.diagrams.net" modified="2020-11-02T22:12:02.844Z" agent="5.0 (Windows NT 10.0; Win64; x64) AppleWebKit/537.36 (KHTML, like Gecko) Chrome/86.0.4240.111 Safari/537.36 Edg/86.0.622.58" etag="r3a3iNdQH_Q0Nxf3OQ7W" version="13.8.8" type="github" pages="2">
  <diagram id="C5RBs43oDa-KdzZeNtuy" name="Page-1">
    <mxGraphModel dx="1695" dy="1619" grid="1" gridSize="10" guides="1" tooltips="1" connect="1" arrows="1" fold="1" page="1" pageScale="1" pageWidth="827" pageHeight="1169" background="none" math="0" shadow="0">
      <root>
        <mxCell id="WIyWlLk6GJQsqaUBKTNV-0" />
        <mxCell id="WIyWlLk6GJQsqaUBKTNV-1" parent="WIyWlLk6GJQsqaUBKTNV-0" />
        <mxCell id="zkfFHV4jXpPFQw0GAbJ--0" value="Person" style="swimlane;fontStyle=2;align=center;verticalAlign=top;childLayout=stackLayout;horizontal=1;startSize=26;horizontalStack=0;resizeParent=1;resizeLast=0;collapsible=1;marginBottom=0;rounded=0;shadow=0;strokeWidth=1;" parent="WIyWlLk6GJQsqaUBKTNV-1" vertex="1" collapsed="1">
          <mxGeometry x="-120" y="-130" width="160" height="26" as="geometry">
            <mxRectangle x="190" y="100" width="160" height="138" as="alternateBounds" />
          </mxGeometry>
        </mxCell>
        <mxCell id="zkfFHV4jXpPFQw0GAbJ--1" value="Name" style="text;align=left;verticalAlign=top;spacingLeft=4;spacingRight=4;overflow=hidden;rotatable=0;points=[[0,0.5],[1,0.5]];portConstraint=eastwest;" parent="zkfFHV4jXpPFQw0GAbJ--0" vertex="1">
          <mxGeometry y="26" width="160" height="26" as="geometry" />
        </mxCell>
        <mxCell id="zkfFHV4jXpPFQw0GAbJ--2" value="Phone Number" style="text;align=left;verticalAlign=top;spacingLeft=4;spacingRight=4;overflow=hidden;rotatable=0;points=[[0,0.5],[1,0.5]];portConstraint=eastwest;rounded=0;shadow=0;html=0;" parent="zkfFHV4jXpPFQw0GAbJ--0" vertex="1">
          <mxGeometry y="52" width="160" height="26" as="geometry" />
        </mxCell>
        <mxCell id="zkfFHV4jXpPFQw0GAbJ--3" value="Email Address" style="text;align=left;verticalAlign=top;spacingLeft=4;spacingRight=4;overflow=hidden;rotatable=0;points=[[0,0.5],[1,0.5]];portConstraint=eastwest;rounded=0;shadow=0;html=0;" parent="zkfFHV4jXpPFQw0GAbJ--0" vertex="1">
          <mxGeometry y="78" width="160" height="26" as="geometry" />
        </mxCell>
        <mxCell id="zkfFHV4jXpPFQw0GAbJ--4" value="" style="line;html=1;strokeWidth=1;align=left;verticalAlign=middle;spacingTop=-1;spacingLeft=3;spacingRight=3;rotatable=0;labelPosition=right;points=[];portConstraint=eastwest;" parent="zkfFHV4jXpPFQw0GAbJ--0" vertex="1">
          <mxGeometry y="104" width="160" height="8" as="geometry" />
        </mxCell>
        <mxCell id="zkfFHV4jXpPFQw0GAbJ--5" value="Purchase Parking Pass" style="text;align=left;verticalAlign=top;spacingLeft=4;spacingRight=4;overflow=hidden;rotatable=0;points=[[0,0.5],[1,0.5]];portConstraint=eastwest;" parent="zkfFHV4jXpPFQw0GAbJ--0" vertex="1">
          <mxGeometry y="112" width="160" height="26" as="geometry" />
        </mxCell>
        <mxCell id="zkfFHV4jXpPFQw0GAbJ--6" value="Student" style="swimlane;fontStyle=0;align=center;verticalAlign=top;childLayout=stackLayout;horizontal=1;startSize=26;horizontalStack=0;resizeParent=1;resizeLast=0;collapsible=1;marginBottom=0;rounded=0;shadow=0;strokeWidth=1;" parent="WIyWlLk6GJQsqaUBKTNV-1" vertex="1" collapsed="1">
          <mxGeometry x="-190" y="130" width="160" height="26" as="geometry">
            <mxRectangle x="120" y="360" width="160" height="138" as="alternateBounds" />
          </mxGeometry>
        </mxCell>
        <mxCell id="zkfFHV4jXpPFQw0GAbJ--7" value="Student Number" style="text;align=left;verticalAlign=top;spacingLeft=4;spacingRight=4;overflow=hidden;rotatable=0;points=[[0,0.5],[1,0.5]];portConstraint=eastwest;" parent="zkfFHV4jXpPFQw0GAbJ--6" vertex="1">
          <mxGeometry y="26" width="160" height="26" as="geometry" />
        </mxCell>
        <mxCell id="zkfFHV4jXpPFQw0GAbJ--8" value="Average Mark" style="text;align=left;verticalAlign=top;spacingLeft=4;spacingRight=4;overflow=hidden;rotatable=0;points=[[0,0.5],[1,0.5]];portConstraint=eastwest;rounded=0;shadow=0;html=0;" parent="zkfFHV4jXpPFQw0GAbJ--6" vertex="1">
          <mxGeometry y="52" width="160" height="26" as="geometry" />
        </mxCell>
        <mxCell id="zkfFHV4jXpPFQw0GAbJ--9" value="" style="line;html=1;strokeWidth=1;align=left;verticalAlign=middle;spacingTop=-1;spacingLeft=3;spacingRight=3;rotatable=0;labelPosition=right;points=[];portConstraint=eastwest;" parent="zkfFHV4jXpPFQw0GAbJ--6" vertex="1">
          <mxGeometry y="78" width="160" height="8" as="geometry" />
        </mxCell>
        <mxCell id="zkfFHV4jXpPFQw0GAbJ--10" value="Is Eligibale To Enroll" style="text;align=left;verticalAlign=top;spacingLeft=4;spacingRight=4;overflow=hidden;rotatable=0;points=[[0,0.5],[1,0.5]];portConstraint=eastwest;fontStyle=4" parent="zkfFHV4jXpPFQw0GAbJ--6" vertex="1">
          <mxGeometry y="86" width="160" height="26" as="geometry" />
        </mxCell>
        <mxCell id="zkfFHV4jXpPFQw0GAbJ--11" value="Get Seminars Taken" style="text;align=left;verticalAlign=top;spacingLeft=4;spacingRight=4;overflow=hidden;rotatable=0;points=[[0,0.5],[1,0.5]];portConstraint=eastwest;" parent="zkfFHV4jXpPFQw0GAbJ--6" vertex="1">
          <mxGeometry y="112" width="160" height="26" as="geometry" />
        </mxCell>
        <mxCell id="zkfFHV4jXpPFQw0GAbJ--12" value="" style="endArrow=block;endSize=10;endFill=0;shadow=0;strokeWidth=1;rounded=0;edgeStyle=elbowEdgeStyle;elbow=vertical;" parent="WIyWlLk6GJQsqaUBKTNV-1" source="zkfFHV4jXpPFQw0GAbJ--6" target="zkfFHV4jXpPFQw0GAbJ--0" edge="1">
          <mxGeometry width="160" relative="1" as="geometry">
            <mxPoint x="-110" y="-27" as="sourcePoint" />
            <mxPoint x="-110" y="-27" as="targetPoint" />
          </mxGeometry>
        </mxCell>
        <mxCell id="zkfFHV4jXpPFQw0GAbJ--13" value="Professor" style="swimlane;fontStyle=0;align=center;verticalAlign=top;childLayout=stackLayout;horizontal=1;startSize=26;horizontalStack=0;resizeParent=1;resizeLast=0;collapsible=1;marginBottom=0;rounded=0;shadow=0;strokeWidth=1;" parent="WIyWlLk6GJQsqaUBKTNV-1" vertex="1" collapsed="1">
          <mxGeometry x="20" y="130" width="170" height="26" as="geometry">
            <mxRectangle x="330" y="360" width="160" height="70" as="alternateBounds" />
          </mxGeometry>
        </mxCell>
        <mxCell id="zkfFHV4jXpPFQw0GAbJ--14" value="Salary" style="text;align=left;verticalAlign=top;spacingLeft=4;spacingRight=4;overflow=hidden;rotatable=0;points=[[0,0.5],[1,0.5]];portConstraint=eastwest;" parent="zkfFHV4jXpPFQw0GAbJ--13" vertex="1">
          <mxGeometry y="26" width="170" height="26" as="geometry" />
        </mxCell>
        <mxCell id="zkfFHV4jXpPFQw0GAbJ--15" value="" style="line;html=1;strokeWidth=1;align=left;verticalAlign=middle;spacingTop=-1;spacingLeft=3;spacingRight=3;rotatable=0;labelPosition=right;points=[];portConstraint=eastwest;" parent="zkfFHV4jXpPFQw0GAbJ--13" vertex="1">
          <mxGeometry y="52" width="170" height="8" as="geometry" />
        </mxCell>
        <mxCell id="zkfFHV4jXpPFQw0GAbJ--16" value="" style="endArrow=block;endSize=10;endFill=0;shadow=0;strokeWidth=1;rounded=0;edgeStyle=elbowEdgeStyle;elbow=vertical;" parent="WIyWlLk6GJQsqaUBKTNV-1" source="zkfFHV4jXpPFQw0GAbJ--13" target="zkfFHV4jXpPFQw0GAbJ--0" edge="1">
          <mxGeometry width="160" relative="1" as="geometry">
            <mxPoint x="-100" y="143" as="sourcePoint" />
            <mxPoint y="41" as="targetPoint" />
          </mxGeometry>
        </mxCell>
        <mxCell id="zkfFHV4jXpPFQw0GAbJ--17" value="Address" style="swimlane;fontStyle=0;align=center;verticalAlign=top;childLayout=stackLayout;horizontal=1;startSize=26;horizontalStack=0;resizeParent=1;resizeLast=0;collapsible=1;marginBottom=0;rounded=0;shadow=0;strokeWidth=1;" parent="WIyWlLk6GJQsqaUBKTNV-1" vertex="1" collapsed="1">
          <mxGeometry x="198" y="-110" width="160" height="26" as="geometry">
            <mxRectangle x="508" y="120" width="160" height="216" as="alternateBounds" />
          </mxGeometry>
        </mxCell>
        <mxCell id="zkfFHV4jXpPFQw0GAbJ--18" value="Street" style="text;align=left;verticalAlign=top;spacingLeft=4;spacingRight=4;overflow=hidden;rotatable=0;points=[[0,0.5],[1,0.5]];portConstraint=eastwest;" parent="zkfFHV4jXpPFQw0GAbJ--17" vertex="1">
          <mxGeometry y="26" width="160" height="26" as="geometry" />
        </mxCell>
        <mxCell id="zkfFHV4jXpPFQw0GAbJ--19" value="City" style="text;align=left;verticalAlign=top;spacingLeft=4;spacingRight=4;overflow=hidden;rotatable=0;points=[[0,0.5],[1,0.5]];portConstraint=eastwest;rounded=0;shadow=0;html=0;" parent="zkfFHV4jXpPFQw0GAbJ--17" vertex="1">
          <mxGeometry y="52" width="160" height="26" as="geometry" />
        </mxCell>
        <mxCell id="zkfFHV4jXpPFQw0GAbJ--20" value="State" style="text;align=left;verticalAlign=top;spacingLeft=4;spacingRight=4;overflow=hidden;rotatable=0;points=[[0,0.5],[1,0.5]];portConstraint=eastwest;rounded=0;shadow=0;html=0;" parent="zkfFHV4jXpPFQw0GAbJ--17" vertex="1">
          <mxGeometry y="78" width="160" height="26" as="geometry" />
        </mxCell>
        <mxCell id="zkfFHV4jXpPFQw0GAbJ--21" value="Postal Code" style="text;align=left;verticalAlign=top;spacingLeft=4;spacingRight=4;overflow=hidden;rotatable=0;points=[[0,0.5],[1,0.5]];portConstraint=eastwest;rounded=0;shadow=0;html=0;" parent="zkfFHV4jXpPFQw0GAbJ--17" vertex="1">
          <mxGeometry y="104" width="160" height="26" as="geometry" />
        </mxCell>
        <mxCell id="zkfFHV4jXpPFQw0GAbJ--22" value="Country" style="text;align=left;verticalAlign=top;spacingLeft=4;spacingRight=4;overflow=hidden;rotatable=0;points=[[0,0.5],[1,0.5]];portConstraint=eastwest;rounded=0;shadow=0;html=0;" parent="zkfFHV4jXpPFQw0GAbJ--17" vertex="1">
          <mxGeometry y="130" width="160" height="26" as="geometry" />
        </mxCell>
        <mxCell id="zkfFHV4jXpPFQw0GAbJ--23" value="" style="line;html=1;strokeWidth=1;align=left;verticalAlign=middle;spacingTop=-1;spacingLeft=3;spacingRight=3;rotatable=0;labelPosition=right;points=[];portConstraint=eastwest;" parent="zkfFHV4jXpPFQw0GAbJ--17" vertex="1">
          <mxGeometry y="156" width="160" height="8" as="geometry" />
        </mxCell>
        <mxCell id="zkfFHV4jXpPFQw0GAbJ--24" value="Validate" style="text;align=left;verticalAlign=top;spacingLeft=4;spacingRight=4;overflow=hidden;rotatable=0;points=[[0,0.5],[1,0.5]];portConstraint=eastwest;" parent="zkfFHV4jXpPFQw0GAbJ--17" vertex="1">
          <mxGeometry y="164" width="160" height="26" as="geometry" />
        </mxCell>
        <mxCell id="zkfFHV4jXpPFQw0GAbJ--25" value="Output As Label" style="text;align=left;verticalAlign=top;spacingLeft=4;spacingRight=4;overflow=hidden;rotatable=0;points=[[0,0.5],[1,0.5]];portConstraint=eastwest;" parent="zkfFHV4jXpPFQw0GAbJ--17" vertex="1">
          <mxGeometry y="190" width="160" height="26" as="geometry" />
        </mxCell>
        <mxCell id="zkfFHV4jXpPFQw0GAbJ--26" value="" style="endArrow=open;shadow=0;strokeWidth=1;rounded=0;endFill=1;edgeStyle=elbowEdgeStyle;elbow=vertical;" parent="WIyWlLk6GJQsqaUBKTNV-1" source="zkfFHV4jXpPFQw0GAbJ--0" target="zkfFHV4jXpPFQw0GAbJ--17" edge="1">
          <mxGeometry x="0.5" y="41" relative="1" as="geometry">
            <mxPoint x="70" y="-38" as="sourcePoint" />
            <mxPoint x="230" y="-38" as="targetPoint" />
            <mxPoint x="-40" y="32" as="offset" />
          </mxGeometry>
        </mxCell>
        <mxCell id="zkfFHV4jXpPFQw0GAbJ--27" value="0..1" style="resizable=0;align=left;verticalAlign=bottom;labelBackgroundColor=none;fontSize=12;" parent="zkfFHV4jXpPFQw0GAbJ--26" connectable="0" vertex="1">
          <mxGeometry x="-1" relative="1" as="geometry">
            <mxPoint y="4" as="offset" />
          </mxGeometry>
        </mxCell>
        <mxCell id="zkfFHV4jXpPFQw0GAbJ--28" value="1" style="resizable=0;align=right;verticalAlign=bottom;labelBackgroundColor=none;fontSize=12;" parent="zkfFHV4jXpPFQw0GAbJ--26" connectable="0" vertex="1">
          <mxGeometry x="1" relative="1" as="geometry">
            <mxPoint x="-7" y="4" as="offset" />
          </mxGeometry>
        </mxCell>
        <mxCell id="zkfFHV4jXpPFQw0GAbJ--29" value="lives at" style="text;html=1;resizable=0;points=[];;align=center;verticalAlign=middle;labelBackgroundColor=none;rounded=0;shadow=0;strokeWidth=1;fontSize=12;" parent="zkfFHV4jXpPFQw0GAbJ--26" vertex="1" connectable="0">
          <mxGeometry x="0.5" y="49" relative="1" as="geometry">
            <mxPoint x="-38" y="40" as="offset" />
          </mxGeometry>
        </mxCell>
        <mxCell id="5a4JS8c6AVSK-vOWn1h9-3" value="User" style="rounded=0;whiteSpace=wrap;html=1;" parent="WIyWlLk6GJQsqaUBKTNV-1" vertex="1">
          <mxGeometry x="100" y="230" width="120" height="50" as="geometry" />
        </mxCell>
        <mxCell id="5a4JS8c6AVSK-vOWn1h9-4" value="Orden" style="rounded=0;whiteSpace=wrap;html=1;" parent="WIyWlLk6GJQsqaUBKTNV-1" vertex="1">
          <mxGeometry x="294" y="230" width="120" height="50" as="geometry" />
        </mxCell>
        <mxCell id="5a4JS8c6AVSK-vOWn1h9-5" value="Producto" style="rounded=0;whiteSpace=wrap;html=1;" parent="WIyWlLk6GJQsqaUBKTNV-1" vertex="1">
          <mxGeometry x="490" y="230" width="120" height="50" as="geometry" />
        </mxCell>
        <mxCell id="5a4JS8c6AVSK-vOWn1h9-6" value="Producto 2" style="rounded=0;whiteSpace=wrap;html=1;" parent="WIyWlLk6GJQsqaUBKTNV-1" vertex="1">
          <mxGeometry x="760" y="360" width="120" height="50" as="geometry" />
        </mxCell>
        <mxCell id="5a4JS8c6AVSK-vOWn1h9-7" value="Producto 4" style="rounded=0;whiteSpace=wrap;html=1;" parent="WIyWlLk6GJQsqaUBKTNV-1" vertex="1">
          <mxGeometry x="760" y="530" width="120" height="50" as="geometry" />
        </mxCell>
        <mxCell id="5a4JS8c6AVSK-vOWn1h9-8" value="Producto 1" style="rounded=0;whiteSpace=wrap;html=1;" parent="WIyWlLk6GJQsqaUBKTNV-1" vertex="1">
          <mxGeometry x="760" y="280" width="120" height="50" as="geometry" />
        </mxCell>
        <mxCell id="5a4JS8c6AVSK-vOWn1h9-9" value="Producto 3" style="rounded=0;whiteSpace=wrap;html=1;" parent="WIyWlLk6GJQsqaUBKTNV-1" vertex="1">
          <mxGeometry x="760" y="440" width="120" height="50" as="geometry" />
        </mxCell>
        <mxCell id="5a4JS8c6AVSK-vOWn1h9-10" value="Producto 5" style="rounded=0;whiteSpace=wrap;html=1;" parent="WIyWlLk6GJQsqaUBKTNV-1" vertex="1">
          <mxGeometry x="760" y="620" width="120" height="50" as="geometry" />
        </mxCell>
        <mxCell id="5a4JS8c6AVSK-vOWn1h9-11" value="" style="endArrow=none;html=1;entryX=0.5;entryY=1;entryDx=0;entryDy=0;" parent="WIyWlLk6GJQsqaUBKTNV-1" target="5a4JS8c6AVSK-vOWn1h9-5" edge="1">
          <mxGeometry width="50" height="50" relative="1" as="geometry">
            <mxPoint x="550" y="650" as="sourcePoint" />
            <mxPoint x="470" y="460" as="targetPoint" />
          </mxGeometry>
        </mxCell>
        <mxCell id="5a4JS8c6AVSK-vOWn1h9-12" value="" style="endArrow=none;html=1;entryX=0;entryY=0.5;entryDx=0;entryDy=0;" parent="WIyWlLk6GJQsqaUBKTNV-1" target="5a4JS8c6AVSK-vOWn1h9-10" edge="1">
          <mxGeometry width="50" height="50" relative="1" as="geometry">
            <mxPoint x="550" y="645" as="sourcePoint" />
            <mxPoint x="470" y="460" as="targetPoint" />
          </mxGeometry>
        </mxCell>
        <mxCell id="5a4JS8c6AVSK-vOWn1h9-14" value="Fondo" style="rounded=0;whiteSpace=wrap;html=1;" parent="WIyWlLk6GJQsqaUBKTNV-1" vertex="1">
          <mxGeometry x="294" y="340" width="120" height="50" as="geometry" />
        </mxCell>
      </root>
    </mxGraphModel>
  </diagram>
  <diagram id="d4XBlkFZF7AS55xP6Snk" name="Page-2">
    <mxGraphModel dx="868" dy="450" grid="1" gridSize="10" guides="1" tooltips="1" connect="1" arrows="1" fold="1" page="1" pageScale="1" pageWidth="827" pageHeight="1169" math="0" shadow="0">
      <root>
        <mxCell id="7eyNGeeqmvIQjAfCEIWn-0" />
        <mxCell id="7eyNGeeqmvIQjAfCEIWn-1" parent="7eyNGeeqmvIQjAfCEIWn-0" />
        <mxCell id="7eyNGeeqmvIQjAfCEIWn-26" style="edgeStyle=orthogonalEdgeStyle;rounded=0;orthogonalLoop=1;jettySize=auto;html=1;" parent="7eyNGeeqmvIQjAfCEIWn-1" target="7eyNGeeqmvIQjAfCEIWn-22" edge="1">
          <mxGeometry relative="1" as="geometry">
            <mxPoint x="179" y="1514" as="sourcePoint" />
          </mxGeometry>
        </mxCell>
        <mxCell id="7eyNGeeqmvIQjAfCEIWn-39" style="edgeStyle=orthogonalEdgeStyle;rounded=0;orthogonalLoop=1;jettySize=auto;html=1;exitX=1;exitY=0.5;exitDx=0;exitDy=0;entryX=0;entryY=0.25;entryDx=0;entryDy=0;" parent="7eyNGeeqmvIQjAfCEIWn-1" source="7eyNGeeqmvIQjAfCEIWn-2" target="7eyNGeeqmvIQjAfCEIWn-32" edge="1">
          <mxGeometry relative="1" as="geometry" />
        </mxCell>
        <mxCell id="7eyNGeeqmvIQjAfCEIWn-2" value="" style="whiteSpace=wrap;html=1;aspect=fixed;" parent="7eyNGeeqmvIQjAfCEIWn-1" vertex="1">
          <mxGeometry x="69" y="1290" width="220" height="220" as="geometry" />
        </mxCell>
        <mxCell id="7eyNGeeqmvIQjAfCEIWn-4" value="BOXS" style="rounded=0;whiteSpace=wrap;html=1;" parent="7eyNGeeqmvIQjAfCEIWn-1" vertex="1">
          <mxGeometry x="69" y="1290" width="220" height="40" as="geometry" />
        </mxCell>
        <mxCell id="7eyNGeeqmvIQjAfCEIWn-5" value="" style="whiteSpace=wrap;html=1;aspect=fixed;" parent="7eyNGeeqmvIQjAfCEIWn-1" vertex="1">
          <mxGeometry x="463" y="1290" width="220" height="220" as="geometry" />
        </mxCell>
        <mxCell id="7eyNGeeqmvIQjAfCEIWn-7" style="edgeStyle=orthogonalEdgeStyle;rounded=0;orthogonalLoop=1;jettySize=auto;html=1;exitX=0;exitY=0.5;exitDx=0;exitDy=0;entryX=1;entryY=0.75;entryDx=0;entryDy=0;" parent="7eyNGeeqmvIQjAfCEIWn-1" source="7eyNGeeqmvIQjAfCEIWn-6" target="7eyNGeeqmvIQjAfCEIWn-4" edge="1">
          <mxGeometry relative="1" as="geometry" />
        </mxCell>
        <mxCell id="7eyNGeeqmvIQjAfCEIWn-6" value="USER" style="rounded=0;whiteSpace=wrap;html=1;" parent="7eyNGeeqmvIQjAfCEIWn-1" vertex="1">
          <mxGeometry x="463" y="1290" width="220" height="40" as="geometry" />
        </mxCell>
        <mxCell id="7eyNGeeqmvIQjAfCEIWn-8" value="COMPRA" style="text;html=1;strokeColor=none;fillColor=none;align=center;verticalAlign=middle;whiteSpace=wrap;rounded=0;" parent="7eyNGeeqmvIQjAfCEIWn-1" vertex="1">
          <mxGeometry x="359" y="1290" width="40" height="20" as="geometry" />
        </mxCell>
        <mxCell id="7eyNGeeqmvIQjAfCEIWn-9" value="1..*" style="text;html=1;strokeColor=none;fillColor=none;align=center;verticalAlign=middle;whiteSpace=wrap;rounded=0;" parent="7eyNGeeqmvIQjAfCEIWn-1" vertex="1">
          <mxGeometry x="289" y="1300" width="40" height="20" as="geometry" />
        </mxCell>
        <mxCell id="7eyNGeeqmvIQjAfCEIWn-10" value="1" style="text;html=1;strokeColor=none;fillColor=none;align=center;verticalAlign=middle;whiteSpace=wrap;rounded=0;" parent="7eyNGeeqmvIQjAfCEIWn-1" vertex="1">
          <mxGeometry x="429" y="1290" width="40" height="20" as="geometry" />
        </mxCell>
        <mxCell id="7eyNGeeqmvIQjAfCEIWn-13" value="NAME&lt;span style=&quot;color: rgba(0 , 0 , 0 , 0) ; font-family: monospace ; font-size: 0px&quot;&gt;%3CmxGraphModel%3E%3Croot%3E%3CmxCell%20id%3D%220%22%2F%3E%3CmxCell%20id%3D%221%22%20parent%3D%220%22%2F%3E%3CmxCell%20id%3D%222%22%20value%3D%22%22%20style%3D%22whiteSpace%3Dwrap%3Bhtml%3D1%3Baspect%3Dfixed%3B%22%20vertex%3D%221%22%20parent%3D%221%22%3E%3CmxGeometry%20x%3D%2220%22%20y%3D%2230%22%20width%3D%22220%22%20height%3D%22220%22%20as%3D%22geometry%22%2F%3E%3C%2FmxCell%3E%3CmxCell%20id%3D%223%22%20value%3D%22BOXS%22%20style%3D%22rounded%3D0%3BwhiteSpace%3Dwrap%3Bhtml%3D1%3B%22%20vertex%3D%221%22%20parent%3D%221%22%3E%3CmxGeometry%20x%3D%2220%22%20y%3D%2230%22%20width%3D%22220%22%20height%3D%2240%22%20as%3D%22geometry%22%2F%3E%3C%2FmxCell%3E%3C%2Froot%3E%3C%2FmxGraphModel%3E&lt;/span&gt;" style="text;html=1;strokeColor=none;fillColor=none;align=center;verticalAlign=middle;whiteSpace=wrap;rounded=0;" parent="7eyNGeeqmvIQjAfCEIWn-1" vertex="1">
          <mxGeometry x="89" y="1340" width="40" height="20" as="geometry" />
        </mxCell>
        <mxCell id="7eyNGeeqmvIQjAfCEIWn-14" value="PRICE" style="text;html=1;strokeColor=none;fillColor=none;align=center;verticalAlign=middle;whiteSpace=wrap;rounded=0;" parent="7eyNGeeqmvIQjAfCEIWn-1" vertex="1">
          <mxGeometry x="89" y="1360" width="40" height="20" as="geometry" />
        </mxCell>
        <mxCell id="7eyNGeeqmvIQjAfCEIWn-15" value="GUNS" style="text;html=1;strokeColor=none;fillColor=none;align=center;verticalAlign=middle;whiteSpace=wrap;rounded=0;" parent="7eyNGeeqmvIQjAfCEIWn-1" vertex="1">
          <mxGeometry x="89" y="1380" width="40" height="20" as="geometry" />
        </mxCell>
        <mxCell id="7eyNGeeqmvIQjAfCEIWn-17" value="NAME&lt;span style=&quot;color: rgba(0 , 0 , 0 , 0) ; font-family: monospace ; font-size: 0px&quot;&gt;%3CmxGraphModel%3E%3Croot%3E%3CmxCell%20id%3D%220%22%2F%3E%3CmxCell%20id%3D%221%22%20parent%3D%220%22%2F%3E%3CmxCell%20id%3D%222%22%20value%3D%22%22%20style%3D%22whiteSpace%3Dwrap%3Bhtml%3D1%3Baspect%3Dfixed%3B%22%20vertex%3D%221%22%20parent%3D%221%22%3E%3CmxGeometry%20x%3D%2220%22%20y%3D%2230%22%20width%3D%22220%22%20height%3D%22220%22%20as%3D%22geometry%22%2F%3E%3C%2FmxCell%3E%3CmxCell%20id%3D%223%22%20value%3D%22BOXS%22%20style%3D%22rounded%3D0%3BwhiteSpace%3Dwrap%3Bhtml%3D1%3B%22%20vertex%3D%221%22%20parent%3D%221%22%3E%3CmxGeometry%20x%3D%2220%22%20y%3D%2230%22%20width%3D%22220%22%20height%3D%2240%22%20as%3D%22geometry%22%2F%3E%3C%2FmxCell%3E%3C%2Froot%3E%3C%2FmxGraphModel%3E&lt;/span&gt;" style="text;html=1;strokeColor=none;fillColor=none;align=center;verticalAlign=middle;whiteSpace=wrap;rounded=0;" parent="7eyNGeeqmvIQjAfCEIWn-1" vertex="1">
          <mxGeometry x="479" y="1330" width="40" height="20" as="geometry" />
        </mxCell>
        <mxCell id="7eyNGeeqmvIQjAfCEIWn-18" value="PASSWORD" style="text;html=1;strokeColor=none;fillColor=none;align=center;verticalAlign=middle;whiteSpace=wrap;rounded=0;" parent="7eyNGeeqmvIQjAfCEIWn-1" vertex="1">
          <mxGeometry x="499" y="1350" width="40" height="20" as="geometry" />
        </mxCell>
        <mxCell id="7eyNGeeqmvIQjAfCEIWn-20" value="AMOUNT" style="text;html=1;strokeColor=none;fillColor=none;align=center;verticalAlign=middle;whiteSpace=wrap;rounded=0;" parent="7eyNGeeqmvIQjAfCEIWn-1" vertex="1">
          <mxGeometry x="489" y="1370" width="40" height="20" as="geometry" />
        </mxCell>
        <mxCell id="7eyNGeeqmvIQjAfCEIWn-21" value="" style="whiteSpace=wrap;html=1;aspect=fixed;" parent="7eyNGeeqmvIQjAfCEIWn-1" vertex="1">
          <mxGeometry x="69" y="1630" width="220" height="220" as="geometry" />
        </mxCell>
        <mxCell id="7eyNGeeqmvIQjAfCEIWn-22" value="ASPECT" style="rounded=0;whiteSpace=wrap;html=1;" parent="7eyNGeeqmvIQjAfCEIWn-1" vertex="1">
          <mxGeometry x="69" y="1630" width="220" height="40" as="geometry" />
        </mxCell>
        <mxCell id="7eyNGeeqmvIQjAfCEIWn-24" value="NAME GUN" style="text;html=1;strokeColor=none;fillColor=none;align=center;verticalAlign=middle;whiteSpace=wrap;rounded=0;" parent="7eyNGeeqmvIQjAfCEIWn-1" vertex="1">
          <mxGeometry x="69" y="1690" width="105" height="20" as="geometry" />
        </mxCell>
        <mxCell id="7eyNGeeqmvIQjAfCEIWn-27" value="TIENEN" style="text;html=1;strokeColor=none;fillColor=none;align=center;verticalAlign=middle;whiteSpace=wrap;rounded=0;" parent="7eyNGeeqmvIQjAfCEIWn-1" vertex="1">
          <mxGeometry x="189" y="1560" width="40" height="20" as="geometry" />
        </mxCell>
        <mxCell id="7eyNGeeqmvIQjAfCEIWn-28" value="1..*" style="text;html=1;strokeColor=none;fillColor=none;align=center;verticalAlign=middle;whiteSpace=wrap;rounded=0;" parent="7eyNGeeqmvIQjAfCEIWn-1" vertex="1">
          <mxGeometry x="179" y="1610" width="40" height="20" as="geometry" />
        </mxCell>
        <mxCell id="7eyNGeeqmvIQjAfCEIWn-29" value="1" style="text;html=1;strokeColor=none;fillColor=none;align=center;verticalAlign=middle;whiteSpace=wrap;rounded=0;" parent="7eyNGeeqmvIQjAfCEIWn-1" vertex="1">
          <mxGeometry x="179" y="1510" width="40" height="20" as="geometry" />
        </mxCell>
        <mxCell id="7eyNGeeqmvIQjAfCEIWn-30" style="edgeStyle=orthogonalEdgeStyle;rounded=0;orthogonalLoop=1;jettySize=auto;html=1;" parent="7eyNGeeqmvIQjAfCEIWn-1" target="7eyNGeeqmvIQjAfCEIWn-32" edge="1">
          <mxGeometry relative="1" as="geometry">
            <mxPoint x="579" y="1514" as="sourcePoint" />
          </mxGeometry>
        </mxCell>
        <mxCell id="7eyNGeeqmvIQjAfCEIWn-31" value="" style="whiteSpace=wrap;html=1;aspect=fixed;" parent="7eyNGeeqmvIQjAfCEIWn-1" vertex="1">
          <mxGeometry x="469" y="1630" width="220" height="220" as="geometry" />
        </mxCell>
        <mxCell id="7eyNGeeqmvIQjAfCEIWn-32" value="INVENTARY" style="rounded=0;whiteSpace=wrap;html=1;" parent="7eyNGeeqmvIQjAfCEIWn-1" vertex="1">
          <mxGeometry x="469" y="1630" width="220" height="40" as="geometry" />
        </mxCell>
        <mxCell id="7eyNGeeqmvIQjAfCEIWn-33" value="GUNS" style="text;html=1;strokeColor=none;fillColor=none;align=center;verticalAlign=middle;whiteSpace=wrap;rounded=0;" parent="7eyNGeeqmvIQjAfCEIWn-1" vertex="1">
          <mxGeometry x="485" y="1670" width="40" height="20" as="geometry" />
        </mxCell>
        <mxCell id="7eyNGeeqmvIQjAfCEIWn-35" value="TIENEN" style="text;html=1;strokeColor=none;fillColor=none;align=center;verticalAlign=middle;whiteSpace=wrap;rounded=0;" parent="7eyNGeeqmvIQjAfCEIWn-1" vertex="1">
          <mxGeometry x="589" y="1560" width="40" height="20" as="geometry" />
        </mxCell>
        <mxCell id="7eyNGeeqmvIQjAfCEIWn-36" value="1..*" style="text;html=1;strokeColor=none;fillColor=none;align=center;verticalAlign=middle;whiteSpace=wrap;rounded=0;" parent="7eyNGeeqmvIQjAfCEIWn-1" vertex="1">
          <mxGeometry x="579" y="1610" width="40" height="20" as="geometry" />
        </mxCell>
        <mxCell id="7eyNGeeqmvIQjAfCEIWn-37" value="1" style="text;html=1;strokeColor=none;fillColor=none;align=center;verticalAlign=middle;whiteSpace=wrap;rounded=0;" parent="7eyNGeeqmvIQjAfCEIWn-1" vertex="1">
          <mxGeometry x="579" y="1510" width="40" height="20" as="geometry" />
        </mxCell>
        <mxCell id="7eyNGeeqmvIQjAfCEIWn-38" value="ASPECT" style="text;html=1;strokeColor=none;fillColor=none;align=center;verticalAlign=middle;whiteSpace=wrap;rounded=0;" parent="7eyNGeeqmvIQjAfCEIWn-1" vertex="1">
          <mxGeometry x="89" y="1710" width="40" height="20" as="geometry" />
        </mxCell>
        <mxCell id="7eyNGeeqmvIQjAfCEIWn-40" value="AGREGAN" style="text;html=1;strokeColor=none;fillColor=none;align=center;verticalAlign=middle;whiteSpace=wrap;rounded=0;" parent="7eyNGeeqmvIQjAfCEIWn-1" vertex="1">
          <mxGeometry x="389" y="1490" width="40" height="20" as="geometry" />
        </mxCell>
        <mxCell id="7eyNGeeqmvIQjAfCEIWn-41" value="1" style="text;html=1;strokeColor=none;fillColor=none;align=center;verticalAlign=middle;whiteSpace=wrap;rounded=0;" parent="7eyNGeeqmvIQjAfCEIWn-1" vertex="1">
          <mxGeometry x="423" y="1620" width="40" height="20" as="geometry" />
        </mxCell>
        <mxCell id="7eyNGeeqmvIQjAfCEIWn-42" value="1" style="text;html=1;strokeColor=none;fillColor=none;align=center;verticalAlign=middle;whiteSpace=wrap;rounded=0;" parent="7eyNGeeqmvIQjAfCEIWn-1" vertex="1">
          <mxGeometry x="289" y="1380" width="40" height="20" as="geometry" />
        </mxCell>
        <mxCell id="7eyNGeeqmvIQjAfCEIWn-43" value="&lt;font style=&quot;font-size: 72px&quot;&gt;ENTREGA 1 TALLER 1&lt;/font&gt;" style="text;html=1;strokeColor=none;fillColor=none;align=center;verticalAlign=middle;whiteSpace=wrap;rounded=0;" parent="7eyNGeeqmvIQjAfCEIWn-1" vertex="1">
          <mxGeometry x="139" y="170" width="550" height="210" as="geometry" />
        </mxCell>
        <mxCell id="7eyNGeeqmvIQjAfCEIWn-44" value="&lt;h1&gt;&lt;span&gt;Modelo de dominio&amp;nbsp;&lt;/span&gt;&lt;/h1&gt;&lt;div&gt;&lt;h1&gt;Diagrama de clases&lt;/h1&gt;&lt;/div&gt;&lt;h1&gt;&lt;span style=&quot;font-size: 12px ; font-weight: 400&quot;&gt;C19 Team&lt;/span&gt;&lt;/h1&gt;&lt;div&gt;&lt;span style=&quot;font-size: 12px ; font-weight: 400&quot;&gt;Felipe Pizarro&lt;/span&gt;&lt;/div&gt;&lt;div&gt;&lt;span style=&quot;font-size: 12px ; font-weight: 400&quot;&gt;Brayan Maldonado&lt;/span&gt;&lt;/div&gt;" style="text;html=1;strokeColor=none;fillColor=none;spacing=5;spacingTop=-20;whiteSpace=wrap;overflow=hidden;rounded=0;" parent="7eyNGeeqmvIQjAfCEIWn-1" vertex="1">
          <mxGeometry x="50" y="850" width="300" height="180" as="geometry" />
        </mxCell>
        <mxCell id="7eyNGeeqmvIQjAfCEIWn-45" value="&lt;font style=&quot;font-size: 48px&quot;&gt;Modelo de Dominio&lt;/font&gt;" style="text;html=1;strokeColor=none;fillColor=none;align=center;verticalAlign=middle;whiteSpace=wrap;rounded=0;" parent="7eyNGeeqmvIQjAfCEIWn-1" vertex="1">
          <mxGeometry x="69" y="1200" width="491" height="50" as="geometry" />
        </mxCell>
        <mxCell id="7eyNGeeqmvIQjAfCEIWn-47" value="&lt;font style=&quot;font-size: 48px&quot;&gt;DIAGRAMA DE CLASES&lt;/font&gt;" style="text;html=1;strokeColor=none;fillColor=none;align=center;verticalAlign=middle;whiteSpace=wrap;rounded=0;" parent="7eyNGeeqmvIQjAfCEIWn-1" vertex="1">
          <mxGeometry x="50" y="2350" width="582" height="50" as="geometry" />
        </mxCell>
        <mxCell id="7eyNGeeqmvIQjAfCEIWn-48" value="" style="whiteSpace=wrap;html=1;aspect=fixed;" parent="7eyNGeeqmvIQjAfCEIWn-1" vertex="1">
          <mxGeometry x="50" y="2420" width="220" height="220" as="geometry" />
        </mxCell>
        <mxCell id="7eyNGeeqmvIQjAfCEIWn-49" value="ASPECT" style="rounded=0;whiteSpace=wrap;html=1;" parent="7eyNGeeqmvIQjAfCEIWn-1" vertex="1">
          <mxGeometry x="50" y="2420" width="220" height="40" as="geometry" />
        </mxCell>
        <mxCell id="7eyNGeeqmvIQjAfCEIWn-53" value="" style="rounded=0;whiteSpace=wrap;html=1;" parent="7eyNGeeqmvIQjAfCEIWn-1" vertex="1">
          <mxGeometry x="50" y="2460" width="220" height="70" as="geometry" />
        </mxCell>
        <mxCell id="7eyNGeeqmvIQjAfCEIWn-54" value="-STRING NAME" style="text;html=1;strokeColor=none;fillColor=none;align=center;verticalAlign=middle;whiteSpace=wrap;rounded=0;" parent="7eyNGeeqmvIQjAfCEIWn-1" vertex="1">
          <mxGeometry x="54" y="2470" width="120" height="20" as="geometry" />
        </mxCell>
        <mxCell id="7eyNGeeqmvIQjAfCEIWn-55" value="-STRING TYPE" style="text;html=1;strokeColor=none;fillColor=none;align=center;verticalAlign=middle;whiteSpace=wrap;rounded=0;" parent="7eyNGeeqmvIQjAfCEIWn-1" vertex="1">
          <mxGeometry x="39" y="2485" width="150" height="20" as="geometry" />
        </mxCell>
        <mxCell id="7eyNGeeqmvIQjAfCEIWn-56" value="-STRING BOX" style="text;html=1;strokeColor=none;fillColor=none;align=center;verticalAlign=middle;whiteSpace=wrap;rounded=0;" parent="7eyNGeeqmvIQjAfCEIWn-1" vertex="1">
          <mxGeometry x="39" y="2500" width="150" height="20" as="geometry" />
        </mxCell>
        <mxCell id="7eyNGeeqmvIQjAfCEIWn-58" value="+GETAMMO(STRING);" style="text;html=1;strokeColor=none;fillColor=none;align=center;verticalAlign=middle;whiteSpace=wrap;rounded=0;" parent="7eyNGeeqmvIQjAfCEIWn-1" vertex="1">
          <mxGeometry x="60" y="2550" width="150" height="20" as="geometry" />
        </mxCell>
        <mxCell id="7eyNGeeqmvIQjAfCEIWn-59" value="+SERINVENTARY(STRING);" style="text;html=1;strokeColor=none;fillColor=none;align=center;verticalAlign=middle;whiteSpace=wrap;rounded=0;" parent="7eyNGeeqmvIQjAfCEIWn-1" vertex="1">
          <mxGeometry x="39" y="2560" width="221" height="20" as="geometry" />
        </mxCell>
        <mxCell id="7eyNGeeqmvIQjAfCEIWn-70" value="" style="whiteSpace=wrap;html=1;aspect=fixed;" parent="7eyNGeeqmvIQjAfCEIWn-1" vertex="1">
          <mxGeometry x="309" y="2420" width="220" height="220" as="geometry" />
        </mxCell>
        <mxCell id="7eyNGeeqmvIQjAfCEIWn-71" value="USER" style="rounded=0;whiteSpace=wrap;html=1;" parent="7eyNGeeqmvIQjAfCEIWn-1" vertex="1">
          <mxGeometry x="309" y="2420" width="220" height="40" as="geometry" />
        </mxCell>
        <mxCell id="7eyNGeeqmvIQjAfCEIWn-72" value="" style="rounded=0;whiteSpace=wrap;html=1;" parent="7eyNGeeqmvIQjAfCEIWn-1" vertex="1">
          <mxGeometry x="309" y="2460" width="220" height="70" as="geometry" />
        </mxCell>
        <mxCell id="7eyNGeeqmvIQjAfCEIWn-73" value="-STRING NAME" style="text;html=1;strokeColor=none;fillColor=none;align=center;verticalAlign=middle;whiteSpace=wrap;rounded=0;" parent="7eyNGeeqmvIQjAfCEIWn-1" vertex="1">
          <mxGeometry x="319" y="2470" width="120" height="20" as="geometry" />
        </mxCell>
        <mxCell id="7eyNGeeqmvIQjAfCEIWn-74" value="-STRING PASSWORD" style="text;html=1;strokeColor=none;fillColor=none;align=center;verticalAlign=middle;whiteSpace=wrap;rounded=0;" parent="7eyNGeeqmvIQjAfCEIWn-1" vertex="1">
          <mxGeometry x="319" y="2485" width="150" height="20" as="geometry" />
        </mxCell>
        <mxCell id="7eyNGeeqmvIQjAfCEIWn-75" value="-INT AMOUNTH" style="text;html=1;strokeColor=none;fillColor=none;align=center;verticalAlign=middle;whiteSpace=wrap;rounded=0;" parent="7eyNGeeqmvIQjAfCEIWn-1" vertex="1">
          <mxGeometry x="304" y="2500" width="150" height="20" as="geometry" />
        </mxCell>
        <mxCell id="7eyNGeeqmvIQjAfCEIWn-76" value="+COMPRAR();" style="text;html=1;strokeColor=none;fillColor=none;align=center;verticalAlign=middle;whiteSpace=wrap;rounded=0;" parent="7eyNGeeqmvIQjAfCEIWn-1" vertex="1">
          <mxGeometry x="319" y="2540" width="150" height="20" as="geometry" />
        </mxCell>
        <mxCell id="7eyNGeeqmvIQjAfCEIWn-77" value="+INICIARSESION()" style="text;html=1;strokeColor=none;fillColor=none;align=center;verticalAlign=middle;whiteSpace=wrap;rounded=0;" parent="7eyNGeeqmvIQjAfCEIWn-1" vertex="1">
          <mxGeometry x="298" y="2560" width="221" height="20" as="geometry" />
        </mxCell>
        <mxCell id="7eyNGeeqmvIQjAfCEIWn-78" value="+SALIRSESSION()" style="text;html=1;strokeColor=none;fillColor=none;align=center;verticalAlign=middle;whiteSpace=wrap;rounded=0;" parent="7eyNGeeqmvIQjAfCEIWn-1" vertex="1">
          <mxGeometry x="303" y="2580" width="221" height="20" as="geometry" />
        </mxCell>
        <mxCell id="7eyNGeeqmvIQjAfCEIWn-79" value="SUPERUSER()" style="text;html=1;strokeColor=none;fillColor=none;align=center;verticalAlign=middle;whiteSpace=wrap;rounded=0;" parent="7eyNGeeqmvIQjAfCEIWn-1" vertex="1">
          <mxGeometry x="308" y="2600" width="221" height="20" as="geometry" />
        </mxCell>
      </root>
    </mxGraphModel>
  </diagram>
</mxfile>
